# xmcd
#
# Track frame offsets:
#	182
#	14450
#	32900
#	48375
#	63487
#	75675
#	86550
#	106987
#	126900
#	142162
#	160275
#	179675
#	201937
#	217137
#	233112
#
# Disc length: 3323 seconds
# Revision: 0
# Processed by: cddbd v1.5.2PL0 Copyright (c) Steve Scherf et al.
# Submitted via: dBpowerAMP V12.0
#
DISCID=e00cf90f
DTITLE=Beniamino Gigli - His Unpublished BBC Concerts 1949=52
DYEAR=1900
DGENRE=Classical - Vocal
TTITLE0=Caro mio ben 
TTITLE1=Plaisir d'amour
TTITLE2=Marta - M'appari
TTITLE3=L'Africana - O paradiso
TTITLE4=Pagliacci - Vesti la giubba
TTITLE5=Core'ngrato
TTITLE6=L'Elisir d'amore - Una furtiva lagrima
TTITLE7=I Pescatori di Perle - Mi par d'udire ancora
TTITLE8=Ave Maria
TTITLE9=La Traviata - De'miei bollenti spiriti
TTITLE10=Don Giovanni - Dalla sua pace
TTITLE11=La Favorita - Spirito Gentil
TTITLE12=Le Roi d'Ys - Ma bien aimee
TTITLE13=Carmen - Il fior che avevi
TTITLE14=La Schiavo - Quando nascesti tu
EXTD=
EXTT0=
EXTT1=
EXTT2=
EXTT3=
EXTT4=
EXTT5=
EXTT6=
EXTT7=
EXTT8=
EXTT9=
EXTT10=
EXTT11=
EXTT12=
EXTT13=
EXTT14=
PLAYORDER=
